<svg width="117" height="105" viewBox="0 0 117 105" fill="none" xmlns="http://www.w3.org/2000/svg">
<path d="M25.9419 22.4363L20.3328 28.7465H19.6317L16.8271 28.0453L14.0226 24.5397L11.2181 21.034L9.8158 20.3329L11.2181 18.2295C11.4518 17.9957 12.0594 17.5283 12.6203 17.5283C13.3215 17.5283 14.7237 14.7238 15.4249 14.7238C15.9858 14.7238 17.5283 12.3867 18.2294 11.2181L20.3328 9.81586L23.8385 14.7238L26.643 17.5283L28.7464 21.034L25.9419 22.4363Z" fill="#FFD700" stroke="white" stroke-width="1.40227"/>
<path d="M71.4681 70.5668C72.7017 70.4942 73.7902 71.619 73.7539 72.8889C73.7176 74.1588 72.6291 75.1748 71.3592 75.0659C70.0168 74.9208 69.3274 74.1226 69.2911 72.7801C69.3637 71.365 70.1619 70.6394 71.4681 70.5668ZM71.4681 70.5668C72.7017 70.4942 73.7902 71.619 73.7539 72.8889C73.7176 74.1588 72.6291 75.1748 71.3592 75.0659C70.0168 74.9208 69.3274 74.1226 69.2911 72.7801C69.3637 71.365 70.1619 70.6394 71.4681 70.5668ZM71.4681 70.5668C72.7017 70.4942 73.7902 71.619 73.7539 72.8889C73.7176 74.1588 72.6291 75.1748 71.3592 75.0659C70.0168 74.9208 69.3274 74.1226 69.2911 72.7801C69.3637 71.365 70.1619 70.6394 71.4681 70.5668ZM71.4681 70.5668C72.7017 70.4942 73.7902 71.619 73.7539 72.8889C73.7176 74.1588 72.6291 75.1748 71.3592 75.0659C70.0168 74.9208 69.3274 74.1226 69.2911 72.7801C69.3637 71.365 70.1619 70.6394 71.4681 70.5668ZM71.4681 70.5668C72.7017 70.4942 73.7902 71.619 73.7539 72.8889C73.7176 74.1588 72.6291 75.1748 71.3592 75.0659C70.0168 74.9208 69.3274 74.1226 69.2911 72.7801C69.3637 71.365 70.1619 70.6394 71.4681 70.5668ZM71.4681 70.5668C72.7017 70.4942 73.7902 71.619 73.7539 72.8889C73.7176 74.1588 72.6291 75.1748 71.3592 75.0659C70.0168 74.9208 69.3274 74.1226 69.2911 72.7801C69.3637 71.365 70.1619 70.6394 71.4681 70.5668ZM1.11493 45.7491C1.58661 44.9146 2.05829 44.0801 2.56626 43.2455C4.09015 40.6332 4.81582 40.4517 7.46449 41.9756C14.2495 45.8942 21.0707 49.8128 27.8194 53.7677C28.6902 54.2756 29.5247 54.5296 30.5406 54.5296C48.8636 54.4933 67.1504 54.4933 85.4734 54.5296C86.4893 54.5296 87.3238 54.3119 88.1946 53.804C94.3628 50.2119 100.567 46.7287 106.699 43.1004C111.924 40.0163 111.815 40.1615 114.681 45.2411C117.221 49.7402 116.242 53.296 111.779 55.8721C104.921 59.827 98.1 63.8181 91.2061 67.7004C90.1176 68.3172 89.7185 69.0066 89.7548 70.2403C89.7911 79.1296 89.7911 88.019 89.7548 96.9084C89.7548 101.662 86.961 104.383 82.1716 104.419C74.1168 104.419 66.0982 104.419 58.0433 104.419C49.9884 104.419 41.9698 104.419 33.9512 104.419C29.053 104.419 26.2955 101.698 26.2955 96.7996C26.2955 88.6358 26.1503 80.4721 26.368 72.3447C26.4406 69.4783 25.5698 67.9907 23.03 66.6482C16.499 63.165 10.1132 59.319 3.72731 55.5456C-0.0461402 53.296 -1.02578 49.5588 1.11493 45.7491ZM89.7911 63.3102C94.6531 60.5164 99.261 57.8677 103.833 55.219C105.865 54.0579 107.933 52.8969 109.965 51.6995C111.888 50.5385 112.033 48.2163 110.364 46.8376C109.819 46.3659 109.457 46.765 109.094 46.9827C102.962 50.5022 96.8663 54.0579 90.7707 57.5774C90.2991 57.8677 89.8274 58.1217 89.8274 58.7748C89.7911 60.1535 89.7911 61.6048 89.7911 63.3102ZM84.3123 59.065C82.7522 59.1013 81.192 59.065 79.5592 59.065C81.5185 61.0243 83.369 62.8385 85.292 64.7252C85.292 63.165 85.2557 61.5686 85.292 59.9721C85.292 59.2464 84.9654 59.0287 84.3123 59.065ZM82.2442 98.4686C82.7159 98.9403 83.0424 99.9925 84.0946 99.4845C85.0017 99.0128 85.292 98.1783 85.2557 97.1987C85.2557 97.1261 85.2557 97.0898 85.2557 97.0173C86.0539 91.9739 84.7115 87.8376 80.3575 84.8261C79.2327 84.0642 78.3619 82.9031 77.4185 81.8872C76.2575 80.6535 76.1486 79.2748 77.2008 78.404C78.3619 77.388 79.523 77.6057 80.5389 78.658C81.9539 80.1456 83.369 81.6332 84.784 83.1208C84.9292 83.0482 85.1106 82.9757 85.2557 82.9031C85.2557 79.3473 85.2557 75.8279 85.2557 72.2721C85.2557 71.5464 84.784 71.1836 84.3486 70.7845C80.7566 67.1925 77.1645 63.6004 73.5725 60.0084C73.1008 59.5367 72.7017 59.065 71.9035 59.065C68.4203 59.1013 64.9008 59.065 60.9459 59.065C62.6875 60.8066 64.1389 62.2579 65.5902 63.7456C66.8601 65.088 66.7875 66.6845 65.4451 67.4827C64.284 68.1721 63.2681 67.8456 62.3247 66.9022C60.0389 64.5801 57.7167 62.2942 55.3946 59.9721C54.9229 59.5004 54.5238 59.0287 53.7256 59.0287C50.2424 59.065 46.7592 59.0287 42.8769 59.0287C43.53 59.7181 43.9291 60.1898 44.3645 60.6252C57.0274 73.288 69.6176 85.8783 82.2442 98.4686ZM30.8672 97.3801C30.8672 98.904 31.6654 99.7748 33.1893 99.8474C35.584 99.9199 38.015 99.8474 40.2645 99.8474C37.1442 96.7633 33.9875 93.6429 30.8672 90.5951C30.8309 92.6633 30.8309 95.0217 30.8672 97.3801ZM31.6654 84.2093C36.5999 89.1075 41.4981 94.0058 46.3964 98.9403C46.7955 99.3394 47.1583 99.8474 47.884 99.8474C51.4397 99.8111 54.9592 99.8474 58.4424 99.8474C49.2265 90.6677 40.0105 81.4881 30.8309 72.3084C30.8309 75.5739 30.8672 78.9482 30.7946 82.3226C30.8309 83.1571 31.1211 83.7013 31.6654 84.2093ZM33.915 68.4624C44.1831 78.3314 54.1247 88.527 64.1752 98.6137C65.0459 99.4845 65.9167 99.9199 67.1504 99.8836C70.307 99.7748 73.4999 99.8474 77.2008 99.8474C64.7557 87.4022 52.7097 75.3562 40.6636 63.3464C40.1557 62.8385 39.5388 62.4031 39.1397 61.7863C37.3981 59.2464 34.9309 58.7022 32.0645 59.0287C31.1937 59.1376 30.9034 59.2464 30.7946 60.2261C30.5043 63.4916 31.3388 65.9951 33.915 68.4624ZM4.99723 50.6836C5.21493 51.0102 5.54147 51.3367 5.90431 51.5544C12.5804 55.4367 19.2565 59.2827 26.3318 63.3827C26.3318 61.6411 26.2955 60.2624 26.3318 58.9199C26.368 57.9765 25.6061 57.7588 24.9893 57.396C19.2565 54.0579 13.5238 50.7199 7.71847 47.4544C7.10165 47.1279 6.37599 45.9305 5.61404 47.0916C4.88838 48.1075 4.01758 49.2686 4.99723 50.6836ZM71.4681 70.5668C72.7017 70.4942 73.7902 71.619 73.7539 72.8889C73.7176 74.1588 72.6291 75.1748 71.3592 75.0659C70.0168 74.9208 69.3274 74.1226 69.2911 72.7801C69.3637 71.365 70.1619 70.6394 71.4681 70.5668ZM71.4681 70.5668C72.7017 70.4942 73.7902 71.619 73.7539 72.8889C73.7176 74.1588 72.6291 75.1748 71.3592 75.0659C70.0168 74.9208 69.3274 74.1226 69.2911 72.7801C69.3637 71.365 70.1619 70.6394 71.4681 70.5668ZM71.4681 70.5668C72.7017 70.4942 73.7902 71.619 73.7539 72.8889C73.7176 74.1588 72.6291 75.1748 71.3592 75.0659C70.0168 74.9208 69.3274 74.1226 69.2911 72.7801C69.3637 71.365 70.1619 70.6394 71.4681 70.5668ZM71.4681 70.5668C72.7017 70.4942 73.7902 71.619 73.7539 72.8889C73.7176 74.1588 72.6291 75.1748 71.3592 75.0659C70.0168 74.9208 69.3274 74.1226 69.2911 72.7801C69.3637 71.365 70.1619 70.6394 71.4681 70.5668ZM71.4681 70.5668C72.7017 70.4942 73.7902 71.619 73.7539 72.8889C73.7176 74.1588 72.6291 75.1748 71.3592 75.0659C70.0168 74.9208 69.3274 74.1226 69.2911 72.7801C69.3637 71.365 70.1619 70.6394 71.4681 70.5668ZM71.4681 70.5668C72.7017 70.4942 73.7902 71.619 73.7539 72.8889C73.7176 74.1588 72.6291 75.1748 71.3592 75.0659C70.0168 74.9208 69.3274 74.1226 69.2911 72.7801C69.3637 71.365 70.1619 70.6394 71.4681 70.5668ZM71.4681 70.5668C72.7017 70.4942 73.7902 71.619 73.7539 72.8889C73.7176 74.1588 72.6291 75.1748 71.3592 75.0659C70.0168 74.9208 69.3274 74.1226 69.2911 72.7801C69.3637 71.365 70.1619 70.6394 71.4681 70.5668Z" fill="white"/>
<path d="M46.215 8.23224C50.1699 7.72427 52.6009 6.05524 54.3062 2.35436C55.7938 -0.838568 60.4743 -0.766001 61.8894 2.4632C63.4858 6.09153 65.8079 7.6517 69.6902 8.15967C73.4274 8.63135 74.8062 13.1305 71.9761 15.5977C69.0009 18.2101 68.3478 20.8951 69.146 24.6322C69.8717 28.0429 66.2796 30.619 63.0141 29.3491C61.8894 28.9137 60.7646 28.4057 59.7486 27.7889C58.5876 27.0632 57.5717 27.1721 56.3743 27.7889C54.7778 28.5871 53.254 29.6393 52.0203 29.6756C48.7185 29.6756 46.2876 27.3535 46.9407 24.8499C47.9566 20.8951 46.8318 18.1013 43.8929 15.38C41.3893 13.0216 42.7681 8.66764 46.215 8.23224ZM50.8955 16.2508C52.0929 17.3756 52.4194 18.6092 52.1292 20.1694C51.8389 21.6933 51.6575 23.2535 51.4035 25.1039C53.2902 24.2331 54.8504 23.5438 56.4106 22.7455C57.5717 22.1287 58.6602 22.1287 59.8575 22.7455C61.3451 23.5438 62.869 24.1969 64.538 24.9951C64.6469 23.2535 64.3566 21.6933 64.0663 20.2057C63.7398 18.5367 64.1026 17.1579 65.4451 15.9968C66.6062 14.9809 67.5858 13.7836 68.8195 12.4774C66.9327 12.1145 65.3725 11.6791 63.7761 11.4977C62.1433 11.3163 61.1274 10.5181 60.4743 9.06675C60.0026 8.01454 59.3858 7.03489 58.9141 6.01896C58.4062 4.96675 58.0071 4.6402 57.3902 5.94639C56.846 7.07117 56.1566 8.15967 55.6124 9.28445C54.9955 10.5906 54.0522 11.3163 52.5646 11.4977C50.9681 11.6791 49.3716 12.0783 47.5938 12.4048C48.4283 14.0013 49.6982 15.126 50.8955 16.2508Z" fill="white"/>
<path d="M9.2787 15.7066C12.1451 14.9446 13.8504 13.3482 14.4672 10.4818C14.5035 10.373 14.5398 10.2278 14.576 10.119C15.4468 7.94199 16.753 6.88977 18.676 6.88977C20.853 6.88977 22.2318 8.1234 22.7398 10.119C23.5017 13.3482 25.4247 15.1986 28.5814 15.8517C28.6902 15.888 28.7991 15.9243 28.9079 15.9606C30.6495 16.65 31.6292 17.9562 31.6292 19.8429C31.6292 21.6933 30.7221 23.2172 28.9079 23.6889C25.461 24.5597 23.3566 26.519 22.5221 30.0747C22.0867 31.8526 20.5991 32.796 18.676 32.796C16.6442 32.796 15.2654 31.8889 14.576 29.4216C13.7778 26.5553 12.2176 24.7774 9.2787 24.0517C7.17427 23.5438 5.75922 22.2013 5.68665 19.8429C5.65037 17.9199 6.73887 16.3597 9.2787 15.7066ZM18.6035 27.2809C19.5831 23.1084 21.9778 20.6774 26.1504 19.8429C21.9778 19.0084 19.5831 16.6862 18.7123 12.5137C17.7327 16.65 15.338 19.0809 11.1291 19.8429C15.1929 20.7862 17.8415 22.8907 18.6035 27.2809Z" fill="#FFD700"/>
<path d="M87.2149 16.0331C90.6981 15.1623 92.7663 13.1668 93.6371 9.61101C94.0725 7.83314 95.5601 6.92606 97.5919 6.88977C99.4787 6.96234 100.93 7.97827 101.402 9.82871C102.2 13.2393 104.195 15.1261 107.57 15.9969C109.565 16.5048 110.436 18.1013 110.472 19.9154C110.509 21.9473 109.457 23.2898 107.606 23.7252C104.159 24.5597 102.164 26.5916 101.329 30.0385C100.894 31.8163 99.4424 32.796 97.5194 32.796C95.5964 32.796 94.0725 31.8889 93.6371 30.111C92.8026 26.5553 90.6981 24.5597 87.2512 23.6889C85.4371 23.2172 84.53 21.7296 84.4937 19.8429C84.4574 17.9924 85.4008 16.4685 87.2149 16.0331ZM95.0884 22.2739C96.3583 23.5438 96.322 25.6119 97.7371 27.4986C98.2813 23.0358 100.821 20.75 104.921 19.8792C100.966 18.8632 98.245 16.8314 97.4831 12.5137C96.5397 16.7225 94.1087 19.0446 89.791 19.5889C91.6052 20.9677 93.7459 20.9314 95.0884 22.2739Z" fill="white"/>
<path d="M42.0787 45.7128C41.1717 38.9641 38.3778 33.0863 32.6451 28.8411C32.3186 28.5871 31.9194 28.4057 31.5566 28.188C30.3593 27.5712 29.307 27.8252 28.5451 28.9137C27.7831 30.0385 28.0734 31.1995 29.1256 31.9252C34.3141 35.4084 36.7451 40.4517 37.5433 46.4385C37.7248 47.8535 38.5593 48.688 39.9743 48.5429C41.5345 48.4341 42.0787 47.3456 42.0787 45.7128Z" fill="#FFD700"/>
<path d="M74.0079 46.0031C74.0442 47.3818 74.5884 48.4341 76.0035 48.5792C77.5274 48.7606 78.3256 47.8535 78.507 46.3659C78.7973 43.8987 79.4504 41.5402 80.5389 39.2907C81.9539 36.4606 83.8044 33.9571 86.5619 32.2155C87.7955 31.4535 88.3035 30.365 87.5416 28.9863C86.8522 27.7526 85.546 27.4986 84.0946 28.442C78.5796 32.034 75.6769 37.3677 74.3345 43.681C74.1893 44.4429 74.1168 45.2049 74.0079 46.0031Z" fill="white"/>
<path d="M55.6849 41.0323C55.6849 42.7376 55.6849 44.4066 55.6849 46.1119C55.6849 47.5995 56.3743 48.6155 57.9345 48.5792C59.4947 48.5792 60.184 47.527 60.184 46.0756C60.2203 42.7739 60.2203 39.4358 60.184 36.134C60.1477 34.6827 59.4946 33.6668 57.8982 33.6668C56.3017 33.6668 55.6849 34.6827 55.6849 36.1703C55.6849 37.7668 55.6849 39.3995 55.6849 41.0323Z" fill="white"/>
<path d="M69.2548 72.7438C69.2911 74.0863 69.9805 74.8845 71.323 75.0296C72.5929 75.1748 73.6814 74.1226 73.7177 72.8526C73.7539 71.5827 72.7017 70.458 71.4318 70.5305C70.1619 70.6394 69.3637 71.365 69.2548 72.7438Z" fill="#F7F9FA"/>
<path d="M69.2548 72.7438C69.2911 74.0863 69.9805 74.8845 71.323 75.0296C72.5929 75.1748 73.6814 74.1226 73.7177 72.8526C73.7539 71.5827 72.7017 70.458 71.4318 70.5305C70.1619 70.6394 69.3637 71.365 69.2548 72.7438Z" fill="white"/>
</svg>
