<svg width="447" height="127" viewBox="0 0 447 127" fill="none" xmlns="http://www.w3.org/2000/svg">
<path d="M55.0361 67.3265C55.0361 58.7025 52.3017 52.0418 46.7627 47.204C41.2238 42.3661 33.6515 39.9823 24.046 39.9823H7.21881V94.881H23.8357C33.4412 94.881 41.0134 92.3569 46.6225 87.3088C52.2316 82.2606 55.0361 75.5999 55.0361 67.3265ZM43.3973 67.3265C43.3973 72.585 41.6445 76.7217 38.1388 79.7365C34.6331 82.6813 30.0056 84.1537 24.1862 84.1537H18.5772V50.7096H24.3265C29.9355 50.7096 34.4929 52.182 38.0687 55.1268C41.6445 58.0014 43.3973 62.068 43.3973 67.3265ZM99.3028 79.1756C99.3729 78.3343 99.443 77.0021 99.443 75.2493C99.443 69.7103 97.6902 65.153 94.2546 61.7174C90.8191 58.2819 86.3318 56.529 80.7929 56.529C75.3942 56.529 70.6966 58.4221 66.7702 62.2783C62.914 66.1346 60.9508 70.6919 60.9508 76.0906C60.9508 81.8399 62.914 86.5375 66.8403 90.2535C70.8368 93.8994 75.6746 95.7224 81.494 95.7224C89.1364 95.7224 94.465 92.9178 97.6201 87.2387L89.6973 82.0503C88.0146 84.7847 84.6491 86.5375 81.3538 86.5375C76.6562 86.5375 72.7299 83.733 72.0988 79.1756H99.3028ZM72.3793 71.954C72.5896 70.4816 73.431 69.0092 74.9034 67.6069C76.3757 66.1346 78.2688 65.4334 80.5124 65.4334C85.4905 65.4334 88.2249 68.6586 88.5053 71.954H72.3793ZM125.101 95.7224C133.445 95.7224 140.246 91.7259 143.12 84.0836L133.445 80.0871C131.832 83.8031 129.098 85.6261 125.171 85.6261C119.843 85.6261 116.197 81.6997 116.197 76.0906C116.197 70.2712 120.123 66.6253 125.171 66.6253C128.887 66.6253 131.622 68.4483 133.234 72.1643L142.84 68.1678C140.386 60.8059 133.515 56.5991 125.171 56.5991C119.562 56.5991 114.795 58.4922 110.868 62.2783C106.942 66.0644 104.979 70.6919 104.979 76.2309C104.979 81.8399 106.872 86.4674 110.658 90.1834C114.444 93.8994 119.282 95.7224 125.101 95.7224ZM155.757 37.5984C152.111 37.5984 149.026 40.6834 149.026 44.3994C149.026 48.1154 152.111 51.1303 155.757 51.1303C159.613 51.1303 162.628 48.1154 162.628 44.3994C162.628 40.5432 159.613 37.5984 155.757 37.5984ZM161.366 94.881V57.4405H150.358V94.881H161.366ZM198.791 94.881H209.379V37.8088H198.511V61.7174H198.371C195.566 58.4221 191.85 56.7394 187.153 56.7394C182.034 56.7394 177.757 58.7025 174.322 62.699C170.886 66.6253 169.204 71.1126 169.204 76.0906C169.204 81.3491 170.886 85.9766 174.182 89.8329C177.477 93.6891 181.754 95.5822 187.012 95.5822C192.271 95.5822 196.197 93.7592 198.651 90.1133H198.791V94.881ZM198.791 76.0906C198.791 78.8952 197.88 81.2089 196.127 83.0319C194.374 84.7847 192.131 85.6962 189.536 85.6962C186.942 85.6962 184.699 84.7847 182.946 83.0319C181.193 81.2089 180.281 78.8952 180.281 76.0906C180.281 70.5517 184.278 66.6253 189.536 66.6253C194.795 66.6253 198.791 70.5517 198.791 76.0906ZM224.912 37.5984C221.266 37.5984 218.181 40.6834 218.181 44.3994C218.181 48.1154 221.266 51.1303 224.912 51.1303C228.768 51.1303 231.783 48.1154 231.783 44.3994C231.783 40.5432 228.768 37.5984 224.912 37.5984ZM230.521 94.881V57.4405H219.513V94.881H230.521ZM267.946 94.881H278.533V37.8088H267.666V61.7174H267.525C264.721 58.4221 261.005 56.7394 256.307 56.7394C251.189 56.7394 246.912 58.7025 243.477 62.699C240.041 66.6253 238.358 71.1126 238.358 76.0906C238.358 81.3491 240.041 85.9766 243.336 89.8329C246.632 93.6891 250.909 95.5822 256.167 95.5822C261.426 95.5822 265.352 93.7592 267.806 90.1133H267.946V94.881ZM267.946 76.0906C267.946 78.8952 267.035 81.2089 265.282 83.0319C263.529 84.7847 261.285 85.6962 258.691 85.6962C256.097 85.6962 253.853 84.7847 252.101 83.0319C250.348 81.2089 249.436 78.8952 249.436 76.0906C249.436 70.5517 253.433 66.6253 258.691 66.6253C263.95 66.6253 267.946 70.5517 267.946 76.0906ZM286.354 76.2309C286.354 81.8399 288.317 86.4674 292.244 90.1834C296.17 93.8994 301.008 95.7224 306.757 95.7224C312.436 95.7224 317.274 93.8293 321.271 90.1133C325.267 86.3272 327.23 81.6296 327.23 76.0205C327.23 70.4816 325.267 65.9242 321.341 62.2082C317.414 58.4922 312.577 56.5991 306.897 56.5991C301.218 56.5991 296.31 58.4922 292.314 62.2783C288.317 65.9943 286.354 70.6919 286.354 76.2309ZM297.572 76.0906C297.572 73.3562 298.484 71.0425 300.237 69.2897C301.989 67.4667 304.163 66.5552 306.757 66.5552C309.351 66.5552 311.595 67.4667 313.348 69.2897C315.101 71.0425 316.012 73.3562 316.012 76.0906C316.012 81.6997 312.086 85.6962 306.827 85.6962C304.233 85.6962 301.989 84.7847 300.237 83.0319C298.484 81.2089 297.572 78.8952 297.572 76.0906Z" fill="#2E3A7A"/>
<path d="M356.313 22.6742L350.704 28.9844H350.003L347.198 28.2833L344.394 24.7776L341.589 21.272L340.187 20.5708L341.589 18.4674C341.823 18.2337 342.431 17.7663 342.991 17.7663C343.693 17.7663 345.095 14.9618 345.796 14.9618C346.357 14.9618 347.899 12.6246 348.601 11.4561L350.704 10.0538L354.21 14.9618L357.014 17.7663L359.118 21.272L356.313 22.6742Z" fill="#FFD700" stroke="#2E3A7A" stroke-width="1.40227"/>
<path d="M401.839 70.8048C403.073 70.7322 404.161 71.857 404.125 73.1269C404.089 74.3968 403 75.4127 401.73 75.3039C400.388 75.1588 399.699 74.3605 399.662 73.018C399.735 71.603 400.533 70.8773 401.839 70.8048ZM401.839 70.8048C403.073 70.7322 404.161 71.857 404.125 73.1269C404.089 74.3968 403 75.4127 401.73 75.3039C400.388 75.1588 399.699 74.3605 399.662 73.018C399.735 71.603 400.533 70.8773 401.839 70.8048ZM401.839 70.8048C403.073 70.7322 404.161 71.857 404.125 73.1269C404.089 74.3968 403 75.4127 401.73 75.3039C400.388 75.1588 399.699 74.3605 399.662 73.018C399.735 71.603 400.533 70.8773 401.839 70.8048ZM401.839 70.8048C403.073 70.7322 404.161 71.857 404.125 73.1269C404.089 74.3968 403 75.4127 401.73 75.3039C400.388 75.1588 399.699 74.3605 399.662 73.018C399.735 71.603 400.533 70.8773 401.839 70.8048ZM401.839 70.8048C403.073 70.7322 404.161 71.857 404.125 73.1269C404.089 74.3968 403 75.4127 401.73 75.3039C400.388 75.1588 399.699 74.3605 399.662 73.018C399.735 71.603 400.533 70.8773 401.839 70.8048ZM401.839 70.8048C403.073 70.7322 404.161 71.857 404.125 73.1269C404.089 74.3968 403 75.4127 401.73 75.3039C400.388 75.1588 399.699 74.3605 399.662 73.018C399.735 71.603 400.533 70.8773 401.839 70.8048ZM331.486 45.9871C331.958 45.1525 332.429 44.318 332.937 43.4835C334.461 40.8711 335.187 40.6897 337.836 42.2136C344.621 46.1322 351.442 50.0508 358.191 54.0056C359.061 54.5136 359.896 54.7676 360.912 54.7676C379.235 54.7313 397.522 54.7313 415.845 54.7676C416.86 54.7676 417.695 54.5499 418.566 54.0419C424.734 50.4499 430.938 46.9667 437.07 43.3384C442.295 40.2543 442.186 40.3994 445.053 45.4791C447.592 49.9782 446.613 53.534 442.15 56.1101C435.292 60.0649 428.471 64.0561 421.577 67.9384C420.489 68.5552 420.09 69.2446 420.126 70.4782C420.162 79.3676 420.162 88.257 420.126 97.1464C420.126 101.899 417.332 104.621 412.543 104.657C404.488 104.657 396.469 104.657 388.414 104.657C380.36 104.657 372.341 104.657 364.322 104.657C359.424 104.657 356.667 101.936 356.667 97.0375C356.667 88.8738 356.521 80.7101 356.739 72.5827C356.812 69.7163 355.941 68.2287 353.401 66.8862C346.87 63.403 340.484 59.557 334.098 55.7835C330.325 53.534 329.345 49.7968 331.486 45.9871ZM420.162 63.5481C425.024 60.7543 429.632 58.1056 434.204 55.457C436.236 54.2959 438.304 53.1348 440.336 51.9375C442.259 50.7764 442.404 48.4543 440.735 47.0755C440.191 46.6039 439.828 47.003 439.465 47.2207C433.333 50.7402 427.237 54.2959 421.142 57.8154C420.67 58.1056 420.199 58.3596 420.199 59.0127C420.162 60.3915 420.162 61.8428 420.162 63.5481ZM414.683 59.303C413.123 59.3393 411.563 59.303 409.93 59.303C411.89 61.2623 413.74 63.0764 415.663 64.9632C415.663 63.403 415.627 61.8065 415.663 60.2101C415.663 59.4844 415.337 59.2667 414.683 59.303ZM412.615 98.7066C413.087 99.1782 413.414 100.23 414.466 99.7225C415.373 99.2508 415.663 98.4163 415.627 97.4366C415.627 97.3641 415.627 97.3278 415.627 97.2552C416.425 92.2119 415.083 88.0756 410.729 85.0641C409.604 84.3021 408.733 83.1411 407.79 82.1251C406.629 80.8915 406.52 79.5127 407.572 78.6419C408.733 77.626 409.894 77.8437 410.91 78.8959C412.325 80.3835 413.74 81.8712 415.155 83.3588C415.3 83.2862 415.482 83.2136 415.627 83.1411C415.627 79.5853 415.627 76.0658 415.627 72.5101C415.627 71.7844 415.155 71.4216 414.72 71.0225C411.128 67.4304 407.536 63.8384 403.944 60.2464C403.472 59.7747 403.073 59.303 402.275 59.303C398.791 59.3393 395.272 59.303 391.317 59.303C393.059 61.0446 394.51 62.4959 395.961 63.9835C397.231 65.326 397.159 66.9225 395.816 67.7207C394.655 68.4101 393.639 68.0835 392.696 67.1402C390.41 64.818 388.088 62.5322 385.766 60.2101C385.294 59.7384 384.895 59.2667 384.097 59.2667C380.614 59.303 377.13 59.2667 373.248 59.2667C373.901 59.9561 374.3 60.4278 374.736 60.8632C387.399 73.526 399.989 86.1163 412.615 98.7066ZM361.238 97.6181C361.238 99.142 362.037 100.013 363.56 100.085C365.955 100.158 368.386 100.085 370.636 100.085C367.515 97.0013 364.359 93.8809 361.238 90.8331C361.202 92.9013 361.202 95.2597 361.238 97.6181ZM362.037 84.4473C366.971 89.3455 371.869 94.2437 376.768 99.1783C377.167 99.5774 377.529 100.085 378.255 100.085C381.811 100.049 385.33 100.085 388.814 100.085C379.598 90.9057 370.382 81.726 361.202 72.5464C361.202 75.8119 361.238 79.1862 361.166 82.5605C361.202 83.395 361.492 83.9393 362.037 84.4473ZM364.286 68.7003C374.554 78.5694 384.496 88.765 394.546 98.8517C395.417 99.7225 396.288 100.158 397.522 100.122C400.678 100.013 403.871 100.085 407.572 100.085C395.127 87.6402 383.081 75.5942 371.035 63.5844C370.527 63.0765 369.91 62.6411 369.511 62.0242C367.769 59.4844 365.302 58.9402 362.436 59.2667C361.565 59.3756 361.275 59.4844 361.166 60.4641C360.875 63.7295 361.71 66.2331 364.286 68.7003ZM335.368 50.9216C335.586 51.2481 335.913 51.5747 336.275 51.7924C342.952 55.6747 349.628 59.5207 356.703 63.6207C356.703 61.8791 356.667 60.5003 356.703 59.1579C356.739 58.2145 355.977 57.9968 355.36 57.634C349.628 54.2959 343.895 50.9579 338.09 47.6924C337.473 47.3658 336.747 46.1685 335.985 47.3295C335.26 48.3455 334.389 49.5065 335.368 50.9216ZM401.839 70.8048C403.073 70.7322 404.161 71.857 404.125 73.1269C404.089 74.3968 403 75.4127 401.73 75.3039C400.388 75.1588 399.699 74.3605 399.662 73.018C399.735 71.603 400.533 70.8773 401.839 70.8048ZM401.839 70.8048C403.073 70.7322 404.161 71.857 404.125 73.1269C404.089 74.3968 403 75.4127 401.73 75.3039C400.388 75.1588 399.699 74.3605 399.662 73.018C399.735 71.603 400.533 70.8773 401.839 70.8048ZM401.839 70.8048C403.073 70.7322 404.161 71.857 404.125 73.1269C404.089 74.3968 403 75.4127 401.73 75.3039C400.388 75.1588 399.699 74.3605 399.662 73.018C399.735 71.603 400.533 70.8773 401.839 70.8048ZM401.839 70.8048C403.073 70.7322 404.161 71.857 404.125 73.1269C404.089 74.3968 403 75.4127 401.73 75.3039C400.388 75.1588 399.699 74.3605 399.662 73.018C399.735 71.603 400.533 70.8773 401.839 70.8048ZM401.839 70.8048C403.073 70.7322 404.161 71.857 404.125 73.1269C404.089 74.3968 403 75.4127 401.73 75.3039C400.388 75.1588 399.699 74.3605 399.662 73.018C399.735 71.603 400.533 70.8773 401.839 70.8048ZM401.839 70.8048C403.073 70.7322 404.161 71.857 404.125 73.1269C404.089 74.3968 403 75.4127 401.73 75.3039C400.388 75.1588 399.699 74.3605 399.662 73.018C399.735 71.603 400.533 70.8773 401.839 70.8048ZM401.839 70.8048C403.073 70.7322 404.161 71.857 404.125 73.1269C404.089 74.3968 403 75.4127 401.73 75.3039C400.388 75.1588 399.699 74.3605 399.662 73.018C399.735 71.603 400.533 70.8773 401.839 70.8048Z" fill="#2E3A7A"/>
<path d="M376.586 8.4702C380.541 7.96223 382.972 6.2932 384.677 2.59232C386.165 -0.600607 390.845 -0.52804 392.261 2.70117C393.857 6.32949 396.179 7.88966 400.061 8.39763C403.799 8.86931 405.177 13.3684 402.347 15.8357C399.372 18.4481 398.719 21.133 399.517 24.8702C400.243 28.2808 396.651 30.8569 393.385 29.587C392.261 29.1516 391.136 28.6437 390.12 28.0268C388.959 27.3012 387.943 27.41 386.745 28.0268C385.149 28.8251 383.625 29.8773 382.391 29.9136C379.09 29.9136 376.659 27.5915 377.312 25.0879C378.328 21.133 377.203 18.3392 374.264 15.618C371.76 13.2596 373.139 8.9056 376.586 8.4702ZM381.267 16.4888C382.464 17.6136 382.791 18.8472 382.5 20.4074C382.21 21.9313 382.029 23.4914 381.775 25.3419C383.661 24.4711 385.222 23.7817 386.782 22.9835C387.943 22.3667 389.031 22.3667 390.229 22.9835C391.716 23.7817 393.24 24.4348 394.909 25.233C395.018 23.4914 394.728 21.9313 394.438 20.4437C394.111 18.7746 394.474 17.3959 395.816 16.2348C396.977 15.2189 397.957 14.0215 399.191 12.7153C397.304 12.3525 395.744 11.9171 394.147 11.7357C392.514 11.5543 391.499 10.756 390.845 9.30471C390.374 8.2525 389.757 7.27285 389.285 6.25692C388.777 5.20471 388.378 4.87816 387.761 6.18435C387.217 7.30913 386.528 8.39763 385.984 9.52241C385.367 10.8286 384.423 11.5543 382.936 11.7357C381.339 11.9171 379.743 12.3162 377.965 12.6428C378.799 14.2392 380.069 15.364 381.267 16.4888Z" fill="#2E3A7A"/>
<path d="M339.65 15.9446C342.516 15.1826 344.222 13.5861 344.838 10.7198C344.875 10.6109 344.911 10.4658 344.947 10.3569C345.818 8.17994 347.124 7.12773 349.047 7.12773C351.224 7.12773 352.603 8.36136 353.111 10.3569C353.873 13.5861 355.796 15.4366 358.953 16.0897C359.061 16.126 359.17 16.1622 359.279 16.1985C361.021 16.8879 362 18.1941 362 20.0808C362 21.9313 361.093 23.4552 359.279 23.9269C355.832 24.7977 353.728 26.7569 352.893 30.3127C352.458 32.0906 350.97 33.0339 349.047 33.0339C347.015 33.0339 345.637 32.1269 344.947 29.6596C344.149 26.7932 342.589 25.0154 339.65 24.2897C337.545 23.7817 336.13 22.4392 336.058 20.0808C336.022 18.1578 337.11 16.5976 339.65 15.9446ZM348.975 27.5189C349.954 23.3463 352.349 20.9153 356.522 20.0808C352.349 19.2463 349.954 16.9242 349.083 12.7516C348.104 16.8879 345.709 19.3189 341.5 20.0808C345.564 21.0242 348.213 23.1286 348.975 27.5189Z" fill="#FFD700"/>
<path d="M417.586 16.2711C421.069 15.4003 423.137 13.4047 424.008 9.84897C424.444 8.07109 425.931 7.16401 427.963 7.12772C429.85 7.20029 431.301 8.21622 431.773 10.0667C432.571 13.4773 434.567 15.364 437.941 16.2348C439.937 16.7428 440.807 18.3392 440.844 20.1534C440.88 22.1853 439.828 23.5277 437.977 23.9631C434.53 24.7976 432.535 26.8295 431.7 30.2764C431.265 32.0543 429.814 33.0339 427.891 33.0339C425.968 33.0339 424.444 32.1269 424.008 30.349C423.174 26.7932 421.069 24.7977 417.622 23.9269C415.808 23.4552 414.901 21.9676 414.865 20.0808C414.829 18.2304 415.772 16.7065 417.586 16.2711ZM425.46 22.5118C426.729 23.7817 426.693 25.8499 428.108 27.7366C428.652 23.2738 431.192 20.9879 435.292 20.1171C431.337 19.1012 428.616 17.0693 427.854 12.7516C426.911 16.9605 424.48 19.2826 420.162 19.8269C421.976 21.2056 424.117 21.1693 425.46 22.5118Z" fill="#2E3A7A"/>
<path d="M372.45 45.9508C371.543 39.2021 368.749 33.3242 363.016 29.0791C362.69 28.8251 362.291 28.6437 361.928 28.426C360.73 27.8092 359.678 28.0631 358.916 29.1516C358.154 30.2764 358.445 31.4375 359.497 32.1631C364.685 35.6463 367.116 40.6897 367.914 46.6764C368.096 48.0915 368.93 48.926 370.345 48.7809C371.906 48.672 372.45 47.5835 372.45 45.9508Z" fill="#FFD700"/>
<path d="M404.379 46.241C404.415 47.6198 404.96 48.672 406.375 48.8171C407.899 48.9986 408.697 48.0915 408.878 46.6039C409.168 44.1366 409.822 41.7782 410.91 39.5286C412.325 36.6985 414.176 34.195 416.933 32.4534C418.167 31.6915 418.675 30.603 417.913 29.2242C417.223 27.9906 415.917 27.7366 414.466 28.68C408.951 32.272 406.048 37.6056 404.706 43.9189C404.56 44.6809 404.488 45.4428 404.379 46.241Z" fill="#2E3A7A"/>
<path d="M386.056 41.2702C386.056 42.9755 386.056 44.6446 386.056 46.3499C386.056 47.8375 386.745 48.8534 388.306 48.8171C389.866 48.8171 390.555 47.7649 390.555 46.3136C390.591 43.0118 390.591 39.6738 390.555 36.372C390.519 34.9207 389.866 33.9047 388.269 33.9047C386.673 33.9047 386.056 34.9207 386.056 36.4083C386.056 38.0047 386.056 39.6375 386.056 41.2702Z" fill="#2E3A7A"/>
<path d="M399.626 72.9818C399.662 74.3242 400.352 75.1225 401.694 75.2676C402.964 75.4127 404.053 74.3605 404.089 73.0906C404.125 71.8207 403.073 70.6959 401.803 70.7685C400.533 70.8773 399.735 71.603 399.626 72.9818Z" fill="#F7F9FA"/>
<path d="M399.626 72.9818C399.662 74.3242 400.352 75.1225 401.694 75.2676C402.964 75.4127 404.053 74.3605 404.089 73.0906C404.125 71.8207 403.073 70.6959 401.803 70.7685C400.533 70.8773 399.735 71.603 399.626 72.9818Z" fill="#2E3A7A"/>
<circle cx="156.49" cy="43.7082" r="8.4136" fill="#FFD700"/>
<circle cx="225.201" cy="43.7082" r="8.4136" fill="#FFD700"/>
</svg>
